<?xml version="1.0" standalone="no"?>
<!DOCTYPE svg PUBLIC "-//W3C//DTD SVG 20010904//EN"
 "http://www.w3.org/TR/2001/REC-SVG-20010904/DTD/svg10.dtd">
<svg version="1.0" xmlns="http://www.w3.org/2000/svg"
 width="260.000000pt" height="260.000000pt" viewBox="0 0 260.000000 260.000000"
 preserveAspectRatio="xMidYMid meet">
<metadata>
Created by potrace 1.14, written by Peter Selinger 2001-2017
</metadata>
<g transform="translate(0.000000,260.000000) scale(0.100000,-0.100000)"
fill="#000000" stroke="none">
<path d="M0 1300 l0 -1300 1300 0 1300 0 0 1300 0 1300 -1300 0 -1300 0 0
-1300z m625 188 c77 -196 141 -355 143 -353 3 2 66 163 141 357 l137 353 86 3
85 3 6 -53 c9 -70 9 -679 0 -797 l-6 -92 -61 3 -61 3 -5 357 -5 358 -140 -358
-140 -357 -39 0 -40 0 -140 359 -141 359 -5 -359 -5 -359 -62 -3 -63 -3 0 471
0 471 87 -3 88 -3 140 -357z m1071 3 c76 -198 142 -356 145 -353 4 4 57 138
119 297 62 160 124 318 137 353 l25 63 87 -3 86 -3 0 -465 0 -465 -62 -3 -63
-3 0 368 c0 202 -4 363 -8 358 -5 -6 -68 -165 -142 -355 -73 -190 -137 -351
-143 -357 -5 -7 -24 -13 -42 -13 l-33 0 -118 298 c-64 163 -130 329 -145 367
l-28 70 -3 -365 -3 -365 -60 0 -60 0 -3 468 -2 467 88 0 88 0 140 -359z"/>
</g>
</svg>
